/* XPM */
static char * Player_xpm[] = {
"32 32 267 2",
"  	c None",
". 	c #511A20",
"+ 	c #521B20",
"@ 	c #49191E",
"# 	c #C4393A",
"$ 	c #E04242",
"% 	c #DF4142",
"& 	c #D53E3F",
"* 	c #5A1D21",
"= 	c #541B20",
"- 	c #3A0F1E",
"; 	c #B93538",
"> 	c #E64444",
", 	c #E84444",
"' 	c #E74444",
") 	c #C73A3B",
"! 	c #4B191F",
"~ 	c #971434",
"{ 	c #DE3844",
"] 	c #BD3638",
"^ 	c #3C101E",
"/ 	c #9A1435",
"( 	c #DF3645",
"_ 	c #DE3944",
": 	c #A01537",
"< 	c #9B1635",
"[ 	c #D31C46",
"} 	c #E03A45",
"| 	c #E64244",
"1 	c #DF3745",
"2 	c #CE1745",
"3 	c #901632",
"4 	c #361624",
"5 	c #D21947",
"6 	c #D11D46",
"7 	c #D22046",
"8 	c #E33E44",
"9 	c #E33D44",
"0 	c #9C1A35",
"a 	c #4F1B1F",
"b 	c #47192E",
"c 	c #7B2851",
"d 	c #7C2851",
"e 	c #561D38",
"f 	c #9D1A35",
"g 	c #D01946",
"h 	c #D21E46",
"i 	c #D21F46",
"j 	c #D72A45",
"k 	c #DE3745",
"l 	c #CF1646",
"m 	c #D93344",
"n 	c #E14242",
"o 	c #84272A",
"p 	c #3D1728",
"q 	c #78274F",
"r 	c #802954",
"s 	c #7D2852",
"t 	c #501C34",
"u 	c #A83033",
"v 	c #D82F45",
"w 	c #D01A46",
"x 	c #E54144",
"y 	c #E03945",
"z 	c #DE3545",
"A 	c #EA4544",
"B 	c #85272A",
"C 	c #311523",
"D 	c #76264D",
"E 	c #7C2852",
"F 	c #41182B",
"G 	c #44181E",
"H 	c #D02943",
"I 	c #D01D45",
"J 	c #E74344",
"K 	c #DC3445",
"L 	c #E84245",
"M 	c #8D262D",
"N 	c #73244A",
"O 	c #7F2954",
"P 	c #7F2953",
"Q 	c #7E2853",
"R 	c #491A30",
"S 	c #4F1A1F",
"T 	c #4A1520",
"U 	c #C8383C",
"V 	c #CC2143",
"W 	c #CB1E44",
"X 	c #E54044",
"Y 	c #E13A45",
"Z 	c #D11C46",
"` 	c #CD1A47",
" .	c #CF1D47",
"..	c #CB1A44",
"+.	c #982550",
"@.	c #892853",
"#.	c #812954",
"$.	c #6D2347",
"%.	c #331522",
"&.	c #662243",
"*.	c #7B2751",
"=.	c #381625",
"-.	c #4B1420",
";.	c #4C1420",
">.	c #4A1320",
",.	c #611A24",
"'.	c #621525",
").	c #65172B",
"!.	c #CE1F45",
"~.	c #D42446",
"{.	c #D42346",
"].	c #D31F46",
"^.	c #B7234C",
"/.	c #B6204C",
"(.	c #D11946",
"_.	c #CC1A47",
":.	c #C81B48",
"<.	c #8F2752",
"[.	c #71254A",
"}.	c #341523",
"|.	c #2F1520",
"1.	c #6D2448",
"2.	c #471320",
"3.	c #9F1637",
"4.	c #CA1944",
"5.	c #C81944",
"6.	c #C61944",
"7.	c #94254E",
"8.	c #D22646",
"9.	c #E64144",
"0.	c #E74244",
"a.	c #DB3546",
"b.	c #CE1B47",
"c.	c #C61C48",
"d.	c #84254D",
"e.	c #1D1215",
"f.	c #6B2346",
"g.	c #891530",
"h.	c #CC1945",
"i.	c #CE1F47",
"j.	c #E84344",
"k.	c #D83146",
"l.	c #CE1847",
"m.	c #BE1A43",
"n.	c #4D1421",
"o.	c #7E152D",
"p.	c #CE2047",
"q.	c #E94444",
"r.	c #BB374D",
"s.	c #B31E4A",
"t.	c #CE1945",
"u.	c #CF1946",
"v.	c #B7183E",
"w.	c #491420",
"x.	c #631426",
"y.	c #CB1944",
"z.	c #9A2A51",
"A.	c #E54345",
"B.	c #B5364F",
"C.	c #5B1C39",
"D.	c #B1173C",
"E.	c #AC173B",
"F.	c #031318",
"G.	c #641426",
"H.	c #CD1945",
"I.	c #85152F",
"J.	c #4E1524",
"K.	c #882A50",
"L.	c #E44345",
"M.	c #C1394C",
"N.	c #842A54",
"O.	c #541D37",
"P.	c #42131D",
"Q.	c #BA183F",
"R.	c #3A1726",
"S.	c #872A50",
"T.	c #CD3D4A",
"U.	c #812955",
"V.	c #521422",
"W.	c #BF1841",
"X.	c #021317",
"Y.	c #632141",
"Z.	c #9D1636",
"`.	c #28131C",
" +	c #74254C",
".+	c #8B2C53",
"++	c #CA3C4A",
"@+	c #7D2854",
"#+	c #591423",
"$+	c #011317",
"%+	c #652142",
"&+	c #77264E",
"*+	c #8C2C53",
"=+	c #C93B49",
"-+	c #7A2753",
";+	c #591E3A",
">+	c #41131E",
",+	c #C91944",
"'+	c #571E39",
")+	c #27131B",
"!+	c #882B50",
"~+	c #C0383A",
"{+	c #5A1E3E",
"]+	c #4B1B31",
"^+	c #7B152C",
"/+	c #22131B",
"(+	c #5D1E2D",
"_+	c #E34343",
":+	c #BF3838",
"<+	c #521D3A",
"[+	c #4C1B32",
"}+	c #7D152D",
"|+	c #1F1319",
"1+	c #501A20",
"2+	c #C3393A",
"3+	c #3B161E",
"4+	c #822955",
"5+	c #521C36",
"6+	c #32141D",
"7+	c #BE1840",
"8+	c #951634",
"9+	c #7C152C",
"0+	c #511B20",
"a+	c #DC4041",
"b+	c #AB3233",
"c+	c #5A1F3E",
"d+	c #48182C",
"e+	c #C41842",
"f+	c #2B131B",
"g+	c #772427",
"h+	c #E04142",
"i+	c #B33435",
"j+	c #15121C",
"k+	c #6A2345",
"l+	c #49192D",
"m+	c #BD1840",
"n+	c #C31842",
"o+	c #4E1421",
"p+	c #501421",
"q+	c #B9183F",
"r+	c #83272A",
"s+	c #B13435",
"t+	c #321522",
"u+	c #6E2448",
"v+	c #43182C",
"w+	c #551422",
"x+	c #C21841",
"y+	c #2D131B",
"z+	c #C61843",
"A+	c #C81943",
"B+	c #742326",
"C+	c #351624",
"D+	c #29141C",
"E+	c #3E131E",
"F+	c #72152A",
"G+	c #AD3334",
"H+	c #C2393A",
"I+	c #42181D",
"J+	c #6F1529",
"K+	c #A51739",
"L+	c #081318",
"M+	c #B93637",
"N+	c #000F17",
"O+	c #43131F",
"P+	c #23131A",
"Q+	c #D33E3E",
"R+	c #2B141B",
"              . + + + +                                         ",
"            @ # $ % % & * =                                     ",
"          - ; > , , , ' $ ) !                                   ",
"          ~ { , , , , , , ' ] ^                                 ",
"          / ( , , , , , , , _ :                                 ",
"          < [ } | , , , , , 1 2 3             4 4 4 4 4         ",
"          < 5 6 7 8 | | , 9 7 5 0 a       4 b c c c c d e       ",
"          f [ g g h i j , , k l m n o   p q d r r r r r s t     ",
"          u v w g g h x , , y l z A B C D r r r r r r r r E F   ",
"          G ; H I w i J , , k l K L M N O r r r P c c Q r r R   ",
"            S T U V W X | Y Z `  .i ..+.@.#.r O $.%.%.&.P r *.=.",
"          -.;.>.,.'.).!.~.{.].^./.(.g _.:.<.r [.}.    |.1.r P =.",
"        2.3.4.5.5.6.7.8.9.| 0.a.b.g g g g c.d.4       e.f.#.P =.",
"      g.4.h.g g g g i.x , , , j.k.l.g g g g m.n.      e.f.#.P =.",
"    o.h.g g g g g g p.J , , , q.r.s.t.g g g u.v.w.    e.f.#.P =.",
"  x.4.g g g g y.5.6.z.A., , , ' B.C.D.u.g g g u.E.F.  e.f.r *.=.",
"  G.g g g g H.I.-.J.K.L., , ' M.N.O.P.Q.u.g g (.D.F.  |.1.r R   ",
"  G.g g g t.3     R.S.L., q.T.N.U.O.  V.W.u.g (.D.X.  Y.P E F   ",
"  G.g g 5 Z.    `. +.+L., q.++@+U.O.    #+4.g (.D.$+  %+Q t     ",
"  G.g g 5 Z.    `.&+*+L., q.=+-+U.;+    >+,+g (.D.$+  Y.'+      ",
"  x.4.g g t.3   )+&+!+L., q.~+{+U.Q ]+  >+,+g (.D.X.  |.        ",
"    o.h.g g H.^+/+[.(+_+, q.:+<+P U.[+  #+4.g (.D.F.            ",
"      g.H.g 5 }+|+%.1+_+, q.2+3+&.4+5+6+7+u.g u.E.F.            ",
"        8+5 5 9+    0+a+, , ' b+c+O s d+e+g u.v.w.              ",
"f+;.    8+5 5 9+      g+h+, A i+j+k+O l+m+u.n+o+                ",
"p+q+-.g.H.g H.^+        r+, A s+  t+u+v+w+4.x+y+                ",
"V.z+A+y.g t.3           B+, A s+    C+D+E+n+n+o+                ",
"  F+A+5.4.<             B+, > G+          G.z+v.w.              ",
"    n.n.n.              r+q.H+I+            J+z+K+L+            ",
"                      g+$ ' M+N+              n.O+P+            ",
"                    S Q+$ ) !                                   ",
"                    R+1++ 0+                                    "};
