/* XPM */
static char * coin_xpm[] = {
"7 8 8 1",
" 	c None",
".	c #6F726D",
"+	c #D1851E",
"@	c #E84444",
"#	c #FFD569",
"$	c #25131A",
"%	c #FFFFFF",
"&	c #000000",
"  $$$  ",
" $##@$ ",
"$####@$",
"$#++#@$",
"$#++#@$",
"$####@$",
" $##@$ ",
"  $$$  "};
