/* XPM */
static char * coin_xpm[] = {
"13 13 7 1",
" 	c None",
".	c #8A961F",
"+	c #5C6B53",
"@	c #25131A",
"#	c #CCF61F",
"$	c #FFFFFF",
"%	c #000000",
"    @@@@@    ",
"   @###$$@   ",
"  @###$$$$@  ",
"  @##$$$$$@  ",
" @.#+++++#+@ ",
"@..$+$$$##++@",
"@..$$+++##++@",
"@.#$$$##+#++@",
" @#$+++++#+@ ",
"  @$######@  ",
"  @#######@  ",
"   @#####@   ",
"    @@@@@    "};
