/* XPM */
static char * player3_xpm[] = {
"32 32 6 1",
" 	c None",
".	c #802954",
"+	c #E84444",
"@	c #25131A",
"#	c #D01946",
"$	c #000000",
"                                ",
"                                ",
"                                ",
"                                ",
"                                ",
"          @@@@@                 ",
"         @+++++@@               ",
"        @++++++++@    @@@@@@    ",
"       @#+++++++++@  @......@   ",
"       @#+++++++++#@@........@  ",
"       @##++++++++##@.........@ ",
"       @####+++++###@.........@ ",
"   @@@@@#######+++##++...@@...@ ",
"  @#####+#####++++##++###@@...@ ",
" @#########+++++++##+#####....@ ",
"@#########++++++###########..@  ",
"@########++++++++##########.@   ",
"@####@@##++++++++.##@@#####.@   ",
"@####@@@@+++++@....@@######..@  ",
"@######@@+++++++...@######@...@ ",
" @######@@+++++++..@#####@ @@@@ ",
"  @@#####@@@@@+++...###@@       ",
"    @@###@   @+++@..###@        ",
"    @#@##@  @+++@@@.@###@       ",
"    @####@ @+++@   @@@###@      ",
"     @###@ @@@@       @@@@      ",
"      @@@                       ",
"                                ",
"                                ",
"                                ",
"                                ",
"                                "};
