/* XPM */
static char * tree_exit_xpm[] = {
"32 32 6 1",
" 	c None",
".	c #3D253B",
"+	c #25131A",
"@	c #895A45",
"#	c #523B40",
"$	c #FFFFFF",
"                                ",
"                                ",
"                        #       ",
"                        #       ",
"                       ##       ",
"                       ##       ",
"                    #  ##       ",
"                    #  ##       ",
"                   ##  ##       ",
"                   ######       ",
"                  .######       ",
"        #         #######       ",
"        #  .     .#######.      ",
"       #@  #    .########.      ",
"       @@  #  + #####.###.      ",
"       @@  #  #@@#.##.###.      ",
"       @@  @#@#@@#.#####..      ",
"       @@#@@@@#@@#.#####.#      ",
"      #@##@@@@@@@@.#####.#.     ",
"     ##@@@@@@@@@@@.#####.#.     ",
"     #@@@@@@@@@#@@.#####...     ",
"     #@@@@@@@@@#@@.##.##..#.    ",
"      @@@@@@#@@#@@.##.##..###   ",
"      @@@@@@#@@###....##...##   ",
"      @@@@###@@####...#.....#.  ",
"    ##@@@@@@#@@##@###........#  ",
"   ###@@@@@@@@@#@@####.......#. ",
"  ###@@@@#@@@#@@@@#####......## ",
" .##@@@@@#@@@#@@@@#####..#...##+",
" .##@@@@##@@@#@@@@###....##..##+",
" ##@@@####@@@##@@@##.....##..##+",
"++++++++++++++++++++++++++++++++"};
