/* XPM */
static char * wall_tile_xpm[] = {
"32 32 382 2",
"  	c #646267",
". 	c #666469",
"+ 	c #66656A",
"@ 	c #666369",
"# 	c #656369",
"$ 	c #66646A",
"% 	c #65646A",
"& 	c #65636A",
"* 	c #65636B",
"= 	c #65626B",
"- 	c #64626A",
"; 	c #636369",
"> 	c #616367",
", 	c #646268",
"' 	c #656268",
") 	c #656269",
"! 	c #66636B",
"~ 	c #646169",
"{ 	c #6D6A74",
"] 	c #2D1E23",
"^ 	c #5A585A",
"/ 	c #5B595B",
"( 	c #5C595C",
"_ 	c #5A5A5B",
": 	c #59585A",
"< 	c #51464B",
"[ 	c #5A595B",
"} 	c #585558",
"| 	c #3A2337",
"1 	c #3E323E",
"2 	c #5A5559",
"3 	c #5B585B",
"4 	c #5B5A5B",
"5 	c #565454",
"6 	c #3F2B3B",
"7 	c #585357",
"8 	c #5D575B",
"9 	c #5C5558",
"0 	c #53464C",
"a 	c #59595A",
"b 	c #5A585C",
"c 	c #554F56",
"d 	c #443745",
"e 	c #515150",
"f 	c #484248",
"g 	c #2C1E23",
"h 	c #605F5F",
"i 	c #606060",
"j 	c #605F60",
"k 	c #51464A",
"l 	c #5E585A",
"m 	c #5E5B5C",
"n 	c #514249",
"o 	c #463445",
"p 	c #5C575D",
"q 	c #615F60",
"r 	c #5F5A5C",
"s 	c #54464B",
"t 	c #595459",
"u 	c #5F5C5C",
"v 	c #544648",
"w 	c #605B5C",
"x 	c #534449",
"y 	c #53444D",
"z 	c #595858",
"A 	c #4C454A",
"B 	c #615F5F",
"C 	c #574B4E",
"D 	c #574A4D",
"E 	c #584A4D",
"F 	c #57494D",
"G 	c #523A40",
"H 	c #55474B",
"I 	c #55464A",
"J 	c #523840",
"K 	c #453040",
"L 	c #574B4D",
"M 	c #57494C",
"N 	c #5A4A4E",
"O 	c #57434C",
"P 	c #463240",
"Q 	c #574A4C",
"R 	c #584B4E",
"S 	c #56474A",
"T 	c #523B41",
"U 	c #54494C",
"V 	c #574649",
"W 	c #513A3F",
"X 	c #595859",
"Y 	c #5C5153",
"Z 	c #595151",
"` 	c #533A40",
" .	c #5A5253",
"..	c #5A5353",
"+.	c #544447",
"@.	c #574F4F",
"#.	c #51373F",
"$.	c #40283B",
"%.	c #462E3D",
"&.	c #47303C",
"*.	c #472E3F",
"=.	c #483441",
"-.	c #534B4E",
";.	c #523C43",
">.	c #5C5253",
",.	c #575352",
"'.	c #584F50",
").	c #533E43",
"!.	c #5B5353",
"~.	c #564F4F",
"{.	c #4D383D",
"].	c #50404D",
"^.	c #585757",
"/.	c #2C1A20",
"(.	c #57474C",
"_.	c #4B3E49",
":.	c #534749",
"<.	c #543B41",
"[.	c #564649",
"}.	c #523E42",
"|.	c #534648",
"1.	c #432B3D",
"2.	c #4C3540",
"3.	c #4B343F",
"4.	c #4B3441",
"5.	c #432C3D",
"6.	c #564548",
"7.	c #523C41",
"8.	c #544649",
"9.	c #534447",
"0.	c #533C41",
"a.	c #564347",
"b.	c #4D3640",
"c.	c #4A3B48",
"d.	c #291C20",
"e.	c #5C5454",
"f.	c #4D363F",
"g.	c #53383F",
"h.	c #52393F",
"i.	c #523940",
"j.	c #52383E",
"k.	c #523941",
"l.	c #4C353F",
"m.	c #513A41",
"n.	c #513B40",
"o.	c #503940",
"p.	c #40273D",
"q.	c #493041",
"r.	c #553B41",
"s.	c #533B41",
"t.	c #53393F",
"u.	c #523B40",
"v.	c #503941",
"w.	c #432B3C",
"x.	c #413041",
"y.	c #483B49",
"z.	c #2B1B20",
"A.	c #5C4D51",
"B.	c #503B40",
"C.	c #513A40",
"D.	c #48303B",
"E.	c #513B3F",
"F.	c #4F3842",
"G.	c #4A333E",
"H.	c #523B42",
"I.	c #493140",
"J.	c #4B3342",
"K.	c #513A42",
"L.	c #4A3942",
"M.	c #4B4449",
"N.	c #2C1F23",
"O.	c #625C5D",
"P.	c #523D42",
"Q.	c #4F3841",
"R.	c #4C353E",
"S.	c #42293A",
"T.	c #503942",
"U.	c #432B3B",
"V.	c #513941",
"W.	c #4E373F",
"X.	c #432A3C",
"Y.	c #56464C",
"Z.	c #575757",
"`.	c #2A191F",
" +	c #544247",
".+	c #513B41",
"++	c #4E3641",
"@+	c #41283D",
"#+	c #41283C",
"$+	c #4E3640",
"%+	c #4D3542",
"&+	c #472F3B",
"*+	c #55464B",
"=+	c #565556",
"-+	c #2B1C21",
";+	c #5E5657",
">+	c #50393E",
",+	c #422A3A",
"'+	c #3E253A",
")+	c #3F263A",
"!+	c #503A3F",
"~+	c #513A43",
"{+	c #513A3E",
"]+	c #523D44",
"^+	c #4D3F43",
"/+	c #615E5E",
"(+	c #4E373E",
"_+	c #41293B",
":+	c #4F3840",
"<+	c #4E3740",
"[+	c #4A333B",
"}+	c #4F393F",
"|+	c #3C2536",
"1+	c #271620",
"2+	c #4A3845",
"3+	c #523A42",
"4+	c #442C3B",
"5+	c #513B42",
"6+	c #4D373E",
"7+	c #442C3D",
"8+	c #402838",
"9+	c #432A3E",
"0+	c #452D3E",
"a+	c #493340",
"b+	c #382337",
"c+	c #25131E",
"d+	c #3B2838",
"e+	c #482F3F",
"f+	c #533B42",
"g+	c #513942",
"h+	c #442C3C",
"i+	c #4A333F",
"j+	c #41293A",
"k+	c #3E253C",
"l+	c #452D40",
"m+	c #3E243B",
"n+	c #3E243C",
"o+	c #534149",
"p+	c #4F4B50",
"q+	c #26141F",
"r+	c #3C2939",
"s+	c #4B3241",
"t+	c #523A41",
"u+	c #4B3341",
"v+	c #452C3D",
"w+	c #3F263C",
"x+	c #452E3D",
"y+	c #462E40",
"z+	c #442C40",
"A+	c #3E263C",
"B+	c #3E263A",
"C+	c #48303D",
"D+	c #462F3C",
"E+	c #49323C",
"F+	c #2A1B22",
"G+	c #5C5359",
"H+	c #442C3E",
"I+	c #4E3741",
"J+	c #4D3641",
"K+	c #3E253B",
"L+	c #3D253B",
"M+	c #3D253A",
"N+	c #422B3A",
"O+	c #452E3C",
"P+	c #4D3540",
"Q+	c #3F263B",
"R+	c #3F253D",
"S+	c #4C3441",
"T+	c #41293C",
"U+	c #3E2539",
"V+	c #442B41",
"W+	c #3F273A",
"X+	c #291F22",
"Y+	c #625E5E",
"Z+	c #513C41",
"`+	c #3E243A",
" @	c #523C3F",
".@	c #4B343E",
"+@	c #524044",
"@@	c #504446",
"#@	c #2A1C21",
"$@	c #5B4E51",
"%@	c #452E3B",
"&@	c #472F3E",
"*@	c #3D2539",
"=@	c #4A3240",
"-@	c #48303F",
";@	c #472F42",
">@	c #523B43",
",@	c #564146",
"'@	c #504A4A",
")@	c #2A1E22",
"!@	c #615A5B",
"~@	c #523C42",
"{@	c #40273A",
"]@	c #3F263D",
"^@	c #462E3E",
"/@	c #595655",
"(@	c #2B1F23",
"_@	c #605F5E",
":@	c #503C41",
"<@	c #513A44",
"[@	c #3F253E",
"}@	c #503843",
"|@	c #40273B",
"1@	c #3E263B",
"2@	c #4F383F",
"3@	c #4F3D41",
"4@	c #4C3541",
"5@	c #503A3E",
"6@	c #4C3440",
"7@	c #554347",
"8@	c #452D3B",
"9@	c #462E3C",
"0@	c #4A3341",
"a@	c #3E253D",
"b@	c #56464A",
"c@	c #5A5A58",
"d@	c #625E5F",
"e@	c #503A3C",
"f@	c #4F3741",
"g@	c #3F2639",
"h@	c #543D43",
"i@	c #4E3D41",
"j@	c #29191F",
"k@	c #4B3E47",
"l@	c #523942",
"m@	c #523B3F",
"n@	c #514346",
"o@	c #554F4F",
"p@	c #27151F",
"q@	c #40263C",
"r@	c #533842",
"s@	c #4A323F",
"t@	c #57464A",
"u@	c #595756",
"v@	c #271B20",
"w@	c #5A5259",
"x@	c #543C43",
"y@	c #4E3743",
"z@	c #4F3844",
"A@	c #523E43",
"B@	c #4D3F42",
"C@	c #29191E",
"D@	c #55494A",
"E@	c #4F3B3F",
"F@	c #533C42",
"G@	c #4F3B40",
"H@	c #533B40",
"I@	c #4C343B",
"J@	c #5C5255",
"K@	c #534044",
"L@	c #5C5052",
"M@	c #584B4D",
"N@	c #594F50",
"O@	c #533D42",
"P@	c #585356",
"Q@	c #564B51",
"R@	c #473342",
"S@	c #5B5254",
"T@	c #5B5253",
"U@	c #524A4B",
"V@	c #26171D",
"W@	c #3C3135",
"X@	c #382B30",
"Y@	c #3C3538",
"Z@	c #3B3639",
"`@	c #3B3538",
" #	c #3C3337",
".#	c #36292F",
"+#	c #3A2D32",
"@#	c #3B2A30",
"##	c #3A3437",
"$#	c #3B3236",
"%#	c #37272D",
"&#	c #3A3337",
"*#	c #393236",
"=#	c #301E28",
"-#	c #3A3438",
";#	c #3B3438",
">#	c #373134",
",#	c #453F46",
"  . + + + + + + @ # $ % & * = # + - - = ; > , ' + + + ) ! ~ = { ",
"] ^ / / / / ( _ : < [ } | 1 2 3 4 5 6 7 8 9 0 a / / / b c d e f ",
"g h i i i i j i k l m n o p q i r s t q u v w i i i i m x y z A ",
"g B C D E D D F G H I J K L M N O P Q R S T D D U D D V W S X A ",
"g h Y Z `  . . ...+.@.#.$.%.&.*.=.-.;.>.,. . ...'.).!.~.{.].^.A ",
"/.(._.:.<.:.:.:.[.}.|.J 1.2.3.4.5.6.7.[.8.:.:.:.9.0.S a.b.c.z A ",
"d.e.f.g.` ` ` ` h.i.j.k.l.m.n.o.p.q.r.n.s.G G ` t.u.T v.w.x.y.A ",
"z.A.s.B.C.&.D.C.E.F.G.H.C.C.C.o.I.J.K.m.C.C.C.C.C.K.T o.I.L.M.A ",
"N.O.P.G C.Q.Q.C.u.K.R.S.C.C.C.C.T.7.T.U.V.C.C.C.W.X.u.m.C.Y.Z.A ",
"`. +.+C.C.C.C.C.C.C.v.++C.C.C.n.F.@+#+$+m.C.C.C.K.%+&+C.C.*+=+A ",
"-+;+C.C.C.C.C.C.C.C.o.C.C.v..+>+,+'+)+!+C.C.W ~+m.C.f.{+m.]+^+A ",
"g /+B.C.C.C.C.C.C.C.C.C.C.(+_+!+:+<+b.U.T C.[+%.C.C.C.{+}+_+|+A ",
"1+2+3+G C.m.4+C.5+6+7+C.C.f.8+.+C.C.m.3.,+9+0+b.C.C.C.C.C.a+b+A ",
"c+d+e+f+C.g+R..+h+i+j+W W W.k+l+H.C.E.R.m+n+++C.C.C.C.C.C.o+p+A ",
"q+r+s+t+C.C.u.K.u+v+w+x+y+z+A+B+C+K.D+%.E+i+m.C.C.C.C.C.C.*+=+A ",
"F+G+n.m.C.C.C.u.n.H+I+J+I.K+L+M+K+N+k+J+W W C.C.C.C.C.C.C.*+=+A ",
"g /+B.C.C.C.C.C.C.O+m.C.P+'+L+L+L+L+'+.+o.C.C.C.C.C.C.C.C.*+=+A ",
"g /+B.C.C.C.C.C.C.O+m.C.l.'+Q+I.K+R+S+C.C.C.C.C.C.C.C.C.C.*+=+A ",
"N./+B.C.C.C.C.C.C.O+m.o.T+U+Q+V+w+W+o.C.n.C.C.C.C.C.C.C.C.*+=+A ",
"X+Y+Z+n.C.C.C.C.g+b.T :+Q+`+K+K+L+W+v.C. @m..@5+C.C.C.C.C.+@@@A ",
"#@$@u.n.C.C.C.n.C.0.C.o.%@8+&@*@L+k+=@V.v.-@;@>@C.C.C.C.C.,@'@A ",
")@!@n.C.C.C.C.~@j+T.C.C.P+'+$.M+L+{@F.W.$.'+]@^@C.C.C.C.C.V /@A ",
"(@_@:@C.C.C.C.<@[@}@T C.l.K+K+n+A+|@m.o.R.1@I+2@C.C.C.C.C.).3@A ",
"g /+B.C.C.C.W C.f.>@m.o.%.l.P+4@Q+K+U.C.5@6@m.C.C.C.C.C.C.7@'.A ",
"g /+B.C.C.C.C.C.5@Q.8@9@f.m.C.T.6@0@a@&.K.C.C.C.C.C.C.C.C.b@c@A ",
"g d@B.C.C.C.C.C.W T.++<+e@{+C.n.n.f@g@W.n.C.C.C.C.C.C.C.C.h@i@A ",
"j@k@~@l@C.C.C.C.C.C.C.C.5@W C.m@:+0+b.T T C.C.C.C.C.C.C.C.n@o@A ",
"p@q@r@t+C.C.C.C.C.C.C.o.s@m.C.m.*.G.C.T C.C.C.C.C.C.C.C.C.t@u@A ",
"v@w@x@W C.C.C.C.C.C.C.m.y@m.C.H.z@C.C.C.C.C.C.C.C.C.C.C.C.A@B@A ",
"C@D@E@u.C.C.T T n.C.C.G F@G n.G@H@}+.+C.B.C.T C.C.C.C.C.C.G I@A ",
"-+J@K@.. . ...L@Z+M@K@.. .N@O@P@Q@R@S@ .Z s.T@ . . . . . . .U@A ",
"V@W@X@Y@Z@Z@`@ #.#+#@###Z@$#%#&#*#=#-#Z@$#%#;#Z@Z@Z@Z@Z@Z@Z@>#,#"};
