/* XPM */
static char * water2_tile_xpm[] = {
"32 32 182 2",
"  	c #7890C7",
". 	c #778FC8",
"+ 	c #778EC8",
"@ 	c #5C81CD",
"# 	c #5980CD",
"$ 	c #597ECD",
"% 	c #5B80CC",
"& 	c #597FCD",
"* 	c #587FCE",
"= 	c #587FCD",
"- 	c #5780CE",
"; 	c #5881CC",
"> 	c #5980CC",
", 	c #5780CD",
"' 	c #5880CF",
") 	c #5B80CE",
"! 	c #5880CC",
"~ 	c #56659A",
"{ 	c #566697",
"] 	c #5A81C9",
"^ 	c #597DC5",
"/ 	c #58699E",
"( 	c #57689C",
"_ 	c #566BA2",
": 	c #5981CF",
"< 	c #5780CC",
"[ 	c #555A82",
"} 	c #55597E",
"| 	c #5B7FC7",
"1 	c #597FC8",
"2 	c #596BA4",
"3 	c #5B6BA4",
"4 	c #566CA6",
"5 	c #5B7FCF",
"6 	c #587FCC",
"7 	c #577BC1",
"8 	c #55577A",
"9 	c #55587B",
"0 	c #545B80",
"a 	c #546CA5",
"b 	c #5B7FCC",
"c 	c #5971B1",
"d 	c #5771AF",
"e 	c #5980CB",
"f 	c #5A7FCD",
"g 	c #5881CE",
"h 	c #5981CE",
"i 	c #5980CE",
"j 	c #5A80CC",
"k 	c #596DA7",
"l 	c #566BA3",
"m 	c #567CC5",
"n 	c #565E8D",
"o 	c #5772B0",
"p 	c #525B81",
"q 	c #5B80CA",
"r 	c #577BC2",
"s 	c #54597D",
"t 	c #545A7A",
"u 	c #57679A",
"v 	c #5B7FC9",
"w 	c #5981CC",
"x 	c #58689B",
"y 	c #57669A",
"z 	c #5769A0",
"A 	c #5A7FCC",
"B 	c #545A87",
"C 	c #56587A",
"D 	c #5C7BC2",
"E 	c #5769A1",
"F 	c #566AA1",
"G 	c #5870AC",
"H 	c #587CC7",
"I 	c #555C85",
"J 	c #58679D",
"K 	c #535B80",
"L 	c #5C7FCE",
"M 	c #576BA2",
"N 	c #5569A0",
"O 	c #5C7DC6",
"P 	c #597DCA",
"Q 	c #5870AB",
"R 	c #52597C",
"S 	c #53587A",
"T 	c #55597B",
"U 	c #596AA2",
"V 	c #5A80CA",
"W 	c #555C83",
"X 	c #56597C",
"Y 	c #555A7F",
"Z 	c #597FCB",
"` 	c #5872B3",
" .	c #5973AE",
"..	c #5B77B5",
"+.	c #575779",
"@.	c #575D85",
"#.	c #5771AE",
"$.	c #577FCB",
"%.	c #586FAB",
"&.	c #586FA8",
"*.	c #5470AB",
"=.	c #5C7ECF",
"-.	c #585A80",
";.	c #56577A",
">.	c #54597B",
",.	c #5870AD",
"'.	c #5A80CE",
").	c #5A7FD1",
"!.	c #5968A2",
"~.	c #53577A",
"{.	c #56597A",
"].	c #596FAA",
"^.	c #5881CD",
"/.	c #5880CE",
"(.	c #5B80CB",
"_.	c #575B84",
":.	c #56587C",
"<.	c #54587F",
"[.	c #586DA7",
"}.	c #587ECC",
"|.	c #5D80CE",
"1.	c #5A75B8",
"2.	c #57587A",
"3.	c #545879",
"4.	c #565D86",
"5.	c #5672B5",
"6.	c #597FCF",
"7.	c #5A7FCB",
"8.	c #525A83",
"9.	c #57577D",
"0.	c #55577D",
"a.	c #555D88",
"b.	c #5573B5",
"c.	c #5B78BE",
"d.	c #545778",
"e.	c #56597E",
"f.	c #576FAC",
"g.	c #587EC8",
"h.	c #597FCC",
"i.	c #586DA8",
"j.	c #555B83",
"k.	c #55597A",
"l.	c #596FA8",
"m.	c #5B7DCC",
"n.	c #5B7DC7",
"o.	c #5A71B1",
"p.	c #53587B",
"q.	c #586A9F",
"r.	c #5680CD",
"s.	c #5975B7",
"t.	c #55587C",
"u.	c #55587A",
"v.	c #565A80",
"w.	c #59628F",
"x.	c #57618E",
"y.	c #54587B",
"z.	c #575879",
"A.	c #566291",
"B.	c #5A7FCA",
"C.	c #5481CD",
"D.	c #55608C",
"E.	c #57587C",
"F.	c #586292",
"G.	c #5B72AA",
"H.	c #577EC9",
"I.	c #5771B0",
"J.	c #555981",
"K.	c #576697",
"L.	c #576493",
"M.	c #54597C",
"N.	c #576594",
"O.	c #576698",
"P.	c #555A80",
"Q.	c #5B5F87",
"R.	c #566AA3",
"S.	c #58689A",
"T.	c #56587B",
"U.	c #595C80",
"V.	c #56577C",
"W.	c #56587D",
"X.	c #595C7D",
"Y.	c #585B7D",
"  . . . . . . . . . . . . . . . . . . . . . . . . . . . . . . + ",
"@ # # # # # # # # # # # # # # # # # # # # # # # # # # # # # # $ ",
"@ # # # # # # # # # # # # # # # # # # # # # # # # # # # # # # $ ",
"@ # # # # # # # # # # # # # # # # # # # # # # # # # # # # # # $ ",
"@ # # # # # # # # # # # # # # # # # # # # # # # # # # # # # # $ ",
"@ # # # # # # # # # # # # # # # # # # # # # # # # # # # # # # $ ",
"@ # # # # # # # # # # # # # # # # # # # # # # # # # # # # # # $ ",
"@ # # # # # # # # # # # # # # # # # # # # # # # # # # # # # # $ ",
"@ # # # # # # # # # # # # # # # # # # # # # # # # # # # # # # $ ",
"@ # # # # # # # # # # # # # # # # # # # # # # # # # # # # # # $ ",
"@ # # # # # # # # # # # # # # # # # # # % & * # # # # # # # # $ ",
"@ # # # # # # # # # # # # # # # # # # = - ; > # # # # # # # # $ ",
"@ # # # # # # # # # # # # # & - , ' ) ! ~ { ] # # # # # # # # $ ",
"@ # # # # # # # # # # # # # ^ / ( _ : < [ } | # # # # # # # # $ ",
"@ # # # # 1 2 3 4 5 6 # # # 7 8 9 0 a b c d e # f g h i # j k l ",
"@ # # # # m n o p q i # # # r 8 9 s t u v w > # > x y z # A B C ",
"D E F G & H I J K L M F N O P Q R S 9 T U ; > # V W X Y _ Z `  .",
"..+.8 @.#.$.%.&.*.=.-.;.>.,.'.).!.T 9 ~.{.].^./.(._.:.9 <.[.}.|.",
"1.2.9 3.4.5.(.# 6.7.8.9.0.a.b.* c.d.9 9 9 e.f.g.h.i.j.9 9 k.l.m.",
"n.o.;.p.k.:.q., , r.s.t.u.8 v.w.x.u.9 9 9 y.z.A.B.C.D.9 9 t.E.F.",
"G.H.I.:.9 0.J.K.K.K.L.S T 9 9 9 9 9 9 9 9 9 9 M.N.O.P.9 9 9 9 u.",
"Q.R.S.T.9 9 9 9 9 9 u.y.9 9 9 9 9 9 9 9 9 9 9 y.u.9 9 9 9 9 9 u.",
"U.V.W.t.9 9 9 9 9 9 9 9 9 9 9 9 9 9 9 9 9 9 9 9 9 9 9 9 9 9 9 u.",
"X.9 9 9 9 9 9 9 9 9 9 9 9 9 9 9 9 9 9 9 9 9 9 9 9 9 9 9 9 9 9 u.",
"X.9 9 9 9 9 9 9 9 9 9 9 9 9 9 9 9 9 9 9 9 9 9 9 9 9 9 9 9 9 9 u.",
"X.9 9 9 9 9 9 9 9 9 9 9 9 9 9 9 9 9 9 9 9 9 9 9 9 9 9 9 9 9 9 u.",
"X.9 9 9 9 9 9 9 9 9 9 9 9 9 9 9 9 9 9 9 9 9 9 9 9 9 9 9 9 9 9 u.",
"X.9 9 9 9 9 9 9 9 9 9 9 9 9 9 9 9 9 9 9 9 9 9 9 9 9 9 9 9 9 9 u.",
"X.9 9 9 9 9 9 9 9 9 9 9 9 9 9 9 9 9 9 9 9 9 9 9 9 9 9 9 9 9 9 u.",
"X.9 9 9 9 9 9 9 9 9 9 9 9 9 9 9 9 9 9 9 9 9 9 9 9 9 9 9 9 9 9 u.",
"X.9 9 9 9 9 9 9 9 9 9 9 9 9 9 9 9 9 9 9 9 9 9 9 9 9 9 9 9 9 9 u.",
"Y.9 9 9 9 9 9 9 9 9 9 9 9 9 9 9 9 9 9 9 9 9 9 9 9 9 9 9 9 9 9 u."};
