/* XPM */
static char * water2_tile_xpm[] = {
"32 32 89 1",
" 	c #79A0BF",
".	c #7EA3C0",
"+	c #749CBC",
"@	c #4484B0",
"#	c #6495B9",
"$	c #5F93B9",
"%	c #3F9CC9",
"&	c #419FCC",
"*	c #6D9FC2",
"=	c #7AA3C2",
"-	c #598FB6",
";	c #6997BA",
">	c #84A8C4",
",	c #9BB3C7",
"'	c #6398BD",
")	c #4F9BC6",
"!	c #3C98C5",
"~	c #3C98C6",
"{	c #3A95C3",
"]	c #3D9AC7",
"^	c #3F9BC9",
"/	c #95BBD3",
"(	c #5293BC",
"_	c #6CAED3",
":	c #3F9DCA",
"<	c #54A5CE",
"[	c #9BC0D6",
"}	c #669DC2",
"|	c #44A0CC",
"1	c #409ECB",
"2	c #A3C5DA",
"3	c #7EA9C8",
"4	c #96BFD7",
"5	c #7DA7C5",
"6	c #8DB6CF",
"7	c #7DA7C6",
"8	c #8BB2CC",
"9	c #8AB0C9",
"0	c #7EABCA",
"a	c #7FACCB",
"b	c #8CB4CE",
"c	c #7DA6C4",
"d	c #89B5D0",
"e	c #3B96C4",
"f	c #7DA5C3",
"g	c #7EACCA",
"h	c #52A4CE",
"i	c #78A6C7",
"j	c #8BBAD5",
"k	c #659DC2",
"l	c #75AFD2",
"m	c #409FCC",
"n	c #A8CADD",
"o	c #82B5D4",
"p	c #91BCD5",
"q	c #65ABD1",
"r	c #3E9BC8",
"s	c #8FBBD5",
"t	c #6B9FC3",
"u	c #8EBAD5",
"v	c #ACC9DB",
"w	c #66ABD2",
"x	c #68ACD1",
"y	c #70ACD0",
"z	c #73B1D4",
"A	c #46A0CD",
"B	c #429FCC",
"C	c #66AAD0",
"D	c #72ADD0",
"E	c #7CB5D6",
"F	c #A8C9DC",
"G	c #A6AEB1",
"H	c #BCC5C4",
"I	c #ADB9BD",
"J	c #B2BEC1",
"K	c #B2BBBD",
"L	c #B1BBBD",
"M	c #B1BDC0",
"N	c #B4BFC2",
"O	c #ACB8BC",
"P	c #B2BDC0",
"Q	c #AFBBBE",
"R	c #AFBABE",
"S	c #B3BFC1",
"T	c #C2CAC8",
"U	c #BCC2C1",
"V	c #B0BBBD",
"W	c #B3BEC1",
"X	c #97A6AD",
" .+@@#$%&&&&&&&&&&&&&&&&&*=-@;>,",
"')!~~{]&&&&&&&&&&&&&&&&&&^~~~~!/",
"(_:&&&&&&&&&&&&&&&&&&&&&&&&&&&<[",
"}|1&&&&&&&&&&&&&&&&&&&&&&&&&&&&2",
"3&&&&&&&&&&&&&&&&&&&&&&&&&&&&&&4",
"5&&&&&&&&&&&&&&&&&&&&&&&&&&&&&&6",
"7&&&&&&&&&&&&&&&&&&&&&&&&&&&&&&6",
"7&&&&&&&&&&&&&&&&&&&&&&&&&&&&&&8",
"5&&&&&&&&&&&&&&&&&&&&&&&&&&&&&&9",
"0&&&&&&&&&&&&&&&&&&&&&&&&&&&&&&9",
"a&&&&&&&&&&&&&&&&&&&&&&&&&&&&&&9",
"5&&&&&&&&&&&&&&&&&&&&&&&&&&&&&&b",
"c&&&&&&&&&&&&&&&&&&&&&&&&&&&&&&d",
"7&&&&&&&&&&&&&&&&&&&&&&&&&&&&&&e",
"5&&&&&&&&&&&&&&&&&&&&&&&&&&&&&&&",
"3&&&&&&&&&&&&&&&&&&&&&&&&&&&&&&&",
"a&&&&&&&&&&&&&&&&&&&&&&&&&&&&&&&",
"3&&&&&&&&&&&&&&&&&&&&&&&&&&&&&&&",
"f&&&&&&&&&&&&&&&&&&&&&&&&&&&&&&&",
"7&&&&&&&&&&&&&&&&&&&&&&&&&&&&&&&",
"5&&&&&&&&&&&&&&&&&&&&&&&&&&&&&&&",
"7&&&&&&&&&&&&&&&&&&&&&&&&&&&&&&&",
"a&&&&&&&&&&&&&&&&&&&&&&&&&&&&&&&",
"g&&&&&&&&&&&&&&&&&&&&&&&&&&&&&&&",
"f&&&&&&&&&&&&&&&&&&&&&&&&&&&&&&h",
"i&&&&&&&&&&&&&&&&&&&&&&&&&&&&&&j",
"kl&&&&&&&&&&&&&&&&&&&&&&&&&&&&mn",
"(o1&&&&&&&&&&&&&&&&&&&&&&&&&&&&p",
"(qr&&&&&&&&&&&&&&&&&&&&&&&&&&&&s",
"t&&&&&&&&&&&&&&&&&&&&&&&&&&&&&&u",
"vwxyzA&BBB&&&BBB&&&&BBB&&&&&CDEF",
"GHIJKLMNOPMMMNQRPMMPSOJPMJTUVMWX"};
