/* XPM */
static char * water_tile_xpm[] = {
"32 32 193 2",
"  	c #72ACCF",
". 	c #70ACD0",
"+ 	c #76AACD",
"@ 	c #67AAD5",
"# 	c #65AAD6",
"$ 	c #64AAD3",
"% 	c #65ABD3",
"& 	c #62ABD4",
"* 	c #63ABD3",
"= 	c #63ABD5",
"- 	c #62ABD5",
"; 	c #63ABD4",
"> 	c #61A4D3",
", 	c #5C87CF",
"' 	c #5C91D0",
") 	c #61AAD2",
"! 	c #60AAD2",
"~ 	c #60A1D4",
"{ 	c #5B87CF",
"] 	c #5B89CF",
"^ 	c #5888CF",
"/ 	c #62A8D7",
"( 	c #60ABD3",
"_ 	c #61ABD4",
": 	c #61AAD3",
"< 	c #61ABD3",
"[ 	c #62ACD4",
"} 	c #62AAD4",
"| 	c #62AAD5",
"1 	c #598ACE",
"2 	c #5C8ECD",
"3 	c #64ABD5",
"4 	c #65AAD5",
"5 	c #62A2D3",
"6 	c #5A81CE",
"7 	c #5B8DD0",
"8 	c #63ACD5",
"9 	c #62ADD5",
"0 	c #62A2D4",
"a 	c #5883CD",
"b 	c #5982CD",
"c 	c #5980CE",
"d 	c #5C8ED1",
"e 	c #62A9D6",
"f 	c #61A7D4",
"g 	c #5B8CCF",
"h 	c #5C8DCE",
"i 	c #5B90D0",
"j 	c #61ACD4",
"k 	c #63A8D4",
"l 	c #5982CE",
"m 	c #5884CE",
"n 	c #5E90D0",
"o 	c #67ABD2",
"p 	c #63A8D7",
"q 	c #5F9ED4",
"r 	c #61A3D3",
"s 	c #60A3D2",
"t 	c #5A81CF",
"u 	c #5980CD",
"v 	c #5882CC",
"w 	c #5D92D0",
"x 	c #64AAD6",
"y 	c #5EA5D4",
"z 	c #5A7ECE",
"A 	c #5883CC",
"B 	c #5D93D0",
"C 	c #5D90D0",
"D 	c #64A5D3",
"E 	c #5984C9",
"F 	c #5981CD",
"G 	c #5C93CF",
"H 	c #63A7D6",
"I 	c #61AAD5",
"J 	c #62ACD3",
"K 	c #609FCF",
"L 	c #5A81CC",
"M 	c #5A89CF",
"N 	c #64ABD8",
"O 	c #5EABD0",
"P 	c #64ABD6",
"Q 	c #64A7D2",
"R 	c #5882CD",
"S 	c #5A7FCF",
"T 	c #5881CB",
"U 	c #5B7FCF",
"V 	c #5681CC",
"W 	c #62A5D5",
"X 	c #60A6D0",
"Y 	c #5880CC",
"Z 	c #5782CD",
"` 	c #5781CA",
" .	c #5780CA",
"..	c #60A7D6",
"+.	c #63A8D5",
"@.	c #5885CC",
"#.	c #5980CC",
"$.	c #62A6D7",
"%.	c #62ACD5",
"&.	c #619FD1",
"*.	c #5A81CD",
"=.	c #5882CE",
"-.	c #5D8FD0",
";.	c #5680CB",
">.	c #5781CD",
",.	c #62A4D5",
"'.	c #5A88CD",
").	c #61A9D4",
"!.	c #61A8D4",
"~.	c #5985CC",
"{.	c #578ACB",
"].	c #63AAD5",
"^.	c #5B87CD",
"/.	c #5883CA",
"(.	c #5A83CE",
"_.	c #5E8ED2",
":.	c #64ABD3",
"<.	c #63A9D6",
"[.	c #61A6D4",
"}.	c #5883CB",
"|.	c #5880CD",
"1.	c #5981CE",
"2.	c #5B8DD1",
"3.	c #62A7D8",
"4.	c #5382C6",
"5.	c #597FCD",
"6.	c #5A80CE",
"7.	c #64A9D7",
"8.	c #64AAD8",
"9.	c #5984CC",
"0.	c #5A7FCE",
"a.	c #5C89CF",
"b.	c #639FD3",
"c.	c #597ECD",
"d.	c #5B82D0",
"e.	c #5886CA",
"f.	c #64ABD7",
"g.	c #5783CA",
"h.	c #5782CE",
"i.	c #5780CC",
"j.	c #5782CA",
"k.	c #5683C9",
"l.	c #5981CC",
"m.	c #5881CC",
"n.	c #5A82CF",
"o.	c #68A8D6",
"p.	c #62A9D0",
"q.	c #629DD6",
"r.	c #5D8FCD",
"s.	c #5783CC",
"t.	c #5987CE",
"u.	c #63A5D7",
"v.	c #64A3D4",
"w.	c #62A6D3",
"x.	c #5B87CE",
"y.	c #5784CC",
"z.	c #66A9D6",
"A.	c #61A1D5",
"B.	c #5B81CE",
"C.	c #5B8BCE",
"D.	c #5B8ACF",
"E.	c #598DCE",
"F.	c #5A88CE",
"G.	c #64ACD6",
"H.	c #63A9D5",
"I.	c #619FD6",
"J.	c #5681CB",
"K.	c #587FCC",
"L.	c #5583CB",
"M.	c #62A8D8",
"N.	c #61AAD7",
"O.	c #5A88CF",
"P.	c #5C8ACB",
"Q.	c #5A86CC",
"R.	c #5784CD",
"S.	c #5882CB",
"T.	c #64A6D5",
"U.	c #65A2D6",
"V.	c #64A4D7",
"W.	c #577FCB",
"X.	c #5781CC",
"Y.	c #5786CC",
"Z.	c #5785CD",
"`.	c #5C82CD",
" +	c #5783CB",
".+	c #64A8D8",
"++	c #5983CD",
"@+	c #5A89CE",
"#+	c #5C81CD",
"$+	c #5C8DD0",
"%+	c #5C81CC",
"&+	c #5E82D0",
"*+	c #5B81D0",
"  . . . . . . . . . . . . . . . . . . . . . . . . . . . . . . + ",
"@ # # # # # # # # # # # # # # # # # # # # # # # # # # # # # # $ ",
"% & & & & & & & & & & & & & & & & & & & & & & & & & & & & & & * ",
"% & & & & & & & & & & & & & & & & & & & & & & & & & & & & & & * ",
"% & & & & & & & & & & & & & & & & & & & & & & & & & & & & & & * ",
"% & & & & & & & & & & & & & & & & & & & & & & & & & & & & & & * ",
"% & & & & & & & & & & & & & & & & & & & & & & & & & & & & & & * ",
"% & & & & & & & & & & & & & & & & & & & & & & & & & & & & & & * ",
"% & & & & & & & & & & & & & & & & & & & & & & & & & & & & & & * ",
"% & & & & & & & & & & & & & & & & & & & & & & & & & & & & & & * ",
"% & & & & & & & & & & & & & & & & & & & & & & & & & & & & & & * ",
"% & = & & & & = = = & & & & & & & & & & & & & & - = ; & & & & * ",
"% > , ' ) ! ~ { ] ^ / ( _ & : < [ _ ( & & & } | 1 , 2 3 & & & * ",
"4 5 6 7 8 9 0 a b c d e | } f g h i e | & j & k a l m n [ [ j * ",
"o p q r & [ s t c u v w x & y z u A B x } C C D E 6 u F G H I J ",
"K L M N O P | Q R S T U V W X Y S T U Z W `  ...+.@.u u #.v $.%.",
"&.*.=.-.| - & $ W ;.F u >.i $ ,.;.F u ` '.).!.| = ~.*.u u Y {.].",
"^./.u (._.:.<.& _ [.}.u |.1.2.3.4.5.u #.6.'.7.I 8.9.0.u u F 1.a.",
"b.c.u u d.e.8 & - f.}.u u u g.h.i.1.u u u j.=.l a k.l.u u m.n.o.",
"p.q.u u u #.r.%.%.f.s.u u u t.u.&.#.|.u u u F m.v.w.x.u u |.y.:.",
"z.A.u u u F B.C.D.E.m.u F u F.G.H.I.J.u u u K.L.M.N.O.u u m.t P.",
"Q.R.u u u u u u S.T.U.i.F u 1.O.= V.W.F u u u X.Y.Z.F u u u u c.",
"`.F u u u u u u  +.+: |.F u 1.++@+Q.u u u u u u u F u u u u u c.",
"#+u u u u u u u m.$+D.c 1.u u u u u u u u u u u u u u u u u u c.",
"#+u u u u u u u u u 6.u u u u u u u u u u u u u u u u u u u u c.",
"#+u u u u u u u u u u u u u u u u u u u u u u u u u u u u u u c.",
"#+u u u u u u u u u u u u u u u u u u u u u u u u u u u u u u c.",
"#+u u u u u u u u u u u u u u u u u u u u u u u u u u u u u u c.",
"#+u u u u u u u u u u u u u u u u u u u u u u u u u u u u u u c.",
"#+u u u u u u u u u u u u u u u u u u u u u u u u u u u u u u c.",
"%+u u u u u u u u u u u u u u u u u u u u u u u u u u u u u u c.",
"&+*+*+*+*+*+*+*+*+*+*+*+*+*+*+*+*+*+*+*+*+*+*+*+*+*+*+*+*+*+*+%+"};
